<svg xmlns="http://www.w3.org/2000/svg" width="90.136" height="81.74" viewBox="0 0 90.136 81.74">
  <g id="Group_297" data-name="Group 297" transform="translate(-175.808 -141.785)">
    <g id="Camera" transform="translate(176.558 142.535)">
      <path id="Stroke_1" data-name="Stroke 1" d="M60.787,13.718h0a3.928,3.928,0,0,1-3.552-2.25c-1.172-2.482-2.662-5.655-3.544-7.382A6.839,6.839,0,0,0,47.354,0C47.3,0,28.229,0,28.18,0a6.843,6.843,0,0,0-6.337,4.083c-.878,1.727-2.368,4.9-3.54,7.382a3.933,3.933,0,0,1-3.552,2.25h0A14.748,14.748,0,0,0,0,28.465V52.7A14.75,14.75,0,0,0,14.752,67.449H60.787A14.749,14.749,0,0,0,75.534,52.7V28.465A14.747,14.747,0,0,0,60.787,13.718Z" transform="translate(0 0)" fill="none" stroke="#200e32" stroke-linecap="round" stroke-linejoin="round" stroke-miterlimit="10" stroke-width="1.5"/>
      <path id="Stroke_3" data-name="Stroke 3" d="M0,12.992A12.978,12.978,0,1,0,12.992,0,13.024,13.024,0,0,0,0,12.992Z" transform="translate(24.789 26.14)" fill="none" stroke="#200e32" stroke-linecap="round" stroke-linejoin="round" stroke-miterlimit="10" stroke-width="1.5" opacity="0.4"/>
      <path id="Fill_5" data-name="Fill 5" d="M3.685,8.146a4.428,4.428,0,0,1-1.22-.319,4.116,4.116,0,0,1-1.312-.9A4.167,4.167,0,0,1,0,4.085,3.967,3.967,0,0,1,.336,2.478,4.155,4.155,0,0,1,1.3,1.08,4.671,4.671,0,0,1,2.541.286a4.175,4.175,0,0,1,4.417.879,3.928,3.928,0,0,1,.775,1.066l.093.239a3.976,3.976,0,0,1,.339,1.615,4.149,4.149,0,0,1-1.192,2.88A4.068,4.068,0,0,1,4.488,8.146l-.405.02Z" transform="translate(54.1 21.435)" fill="#200e32" opacity="0.4"/>
    </g>
    <path id="Union_5" data-name="Union 5" d="M8.959,28V19.04H0V8.96H8.959V0H19.04V8.96H28V19.04H19.04V28Z" transform="translate(237.945 195.525)" fill="#fccc99"/>
  </g>
</svg>
